# xmcd
#
# Track frame offsets: 
#        150
#        4292
#        16907
#        33079
#        42471
#        54419
#        84491
#        96979
#        100543
#        129659
#        146528
#        155960
#        169863
#        191034
#        196114
#        208345
#        220568
#        258674
#        272107
#        285641
#        298031
#
# Disc length: 4307 seconds
#
# Revision: 0
# Processed by: cddbd v1.5.1PL2 Copyright (c) Steve Scherf et al.
# Submitted via: ExactAudioCopy v0.95b4
#
DISCID=3910d115
DTITLE=Various Artist - The Blues Roots of Led Zeppelin
DYEAR=1900
DGENRE=Rock and Blues
TTITLE0=1. LZ's First Rehearsal - John Paul Jones
TTITLE1=2. The Train Kept A' Rollin' - Tiny Bradshaw
TTITLE2=3. Train Kept A' Rollin' - Led Zeppelin
TTITLE3=4. Putting LZ Together - Jimmy Page
TTITLE4=5. Babe I'm Gonna Leave You - Joan Baez
TTITLE5=6. Babe I'm Gonna Leave You - Led Zeppelin
TTITLE6=7. You Shook Me - Muddy Waters
TTITLE7=8. Studio Techniques - Jimmy Page
TTITLE8=9. You Shook Me - Led Zeppelin
TTITLE9=10. Blackwater Side - Bert Jansch
TTITLE10=11. Black Mountain Side - Led Zeppelin
TTITLE11=12. I Can't Quit You, Baby - Otis Rush
TTITLE12=13. I Can't Quit You, Baby - Led Zeppelin
TTITLE13=14. LZ Influences - Robert Plant
TTITLE14=15. How Many More Years - Howlin' Wolf
TTITLE15=16. The Hunter - Albert King
TTITLE16=17. How Many More Times - Led Zeppelin
TTITLE17=18. The Girl I Love, She Got Long Curly Hair - Sleepy John Es
TTITLE17=tes
TTITLE18=19. The Girl I Love, She Got Long Black Wavy Hair - Led Zeppe
TTITLE18=lin
TTITLE19=20. You Need Love - Muddy Waters and Willie Dixon
TTITLE20=22. Whole Lotta Love - Led Zeppelin
EXTD=
EXTT0=
EXTT1=
EXTT2=
EXTT3=
EXTT4=
EXTT5=
EXTT6=
EXTT7=
EXTT8=
EXTT9=
EXTT10=
EXTT11=
EXTT12=
EXTT13=
EXTT14=
EXTT15=
EXTT16=
EXTT17=
EXTT18=
EXTT19=
EXTT20=
PLAYORDER=
